# Blender v3.0.1 OBJ File: 'Snow_AssetsCollection.blend'
# www.blender.org
mtllib Curved_Woodboard.mtl
o Curved_Old_Woodboard_Cube.007
v -0.999239 -0.051503 0.074119
v -0.981666 0.036857 0.064417
v -0.975758 -0.042406 -0.145820
v -0.979946 0.040336 -0.152613
v 1.007335 -0.039365 0.086885
v 0.997713 0.056634 0.076944
v 1.003176 -0.028065 -0.145690
v 1.009049 0.051166 -0.139563
v 0.000140 -0.047745 -0.093003
v 0.001318 0.024821 -0.099248
v -0.122033 -0.049189 0.112850
v -0.121735 0.046140 0.126315
v 0.725681 -0.032939 0.051139
v 0.770861 0.061278 0.067538
v -0.747465 0.043496 0.048587
v -0.710011 -0.057964 0.050296
vt 0.472247 0.924765
vt 0.472247 0.849777
vt 0.597226 0.849777
vt 0.597226 0.924765
vt 0.672379 0.500000
vt 0.597391 0.500000
vt 0.597391 0.000083
vt 0.672379 0.000083
vt 0.472247 0.999917
vt 0.472247 0.924930
vt 0.597226 0.924930
vt 0.597226 0.999917
vt 0.797358 0.500000
vt 0.872346 0.500000
vt 0.872346 0.875684
vt 0.797358 0.861220
vt 0.797359 0.000083
vt 0.797359 0.136799
vt 0.997326 0.500000
vt 0.997326 0.000083
vt 0.872346 0.113890
vt 0.872346 0.000083
vt 0.672379 0.999917
vt 0.797358 0.999917
vt 0.597391 0.999917
vt 0.997325 0.999917
vt 0.872346 0.999917
vn -0.9958 0.0726 -0.0553
vn -0.0462 0.0014 -0.9989
vn 0.9996 0.0217 0.0163
vn -0.1137 -0.0806 0.9902
vn 0.0102 -0.9999 -0.0104
vn 0.0070 0.9959 -0.0903
vn -0.0193 0.9973 -0.0709
vn -0.0077 -0.9976 -0.0687
vn -0.0888 -0.0172 0.9959
vn 0.0531 -0.0825 -0.9952
vn 0.0081 0.9997 -0.0250
vn -0.0239 0.9940 -0.1070
vn 0.0711 -0.1719 0.9825
vn 0.0753 0.0677 0.9949
vn 0.0147 -0.9999 0.0017
vn 0.0195 -0.9998 0.0046
g Curved_Old_Woodboard_Cube.007_PSX_WoodBoard
usemtl PSX_WoodBoard
s off
f 1/1/1 2/2/1 4/3/1 3/4/1
f 9/5/2 10/6/2 8/7/2 7/8/2
f 7/9/3 8/10/3 6/11/3 5/12/3
f 11/13/4 12/14/4 15/15/4 16/16/4
f 9/5/5 7/8/5 5/17/5 13/18/5
f 10/19/6 15/15/6 12/14/6
f 8/20/7 10/19/7 14/21/7 6/22/7
f 3/23/8 9/5/8 16/16/8 1/24/8
f 5/17/9 6/22/9 14/21/9 13/18/9
f 3/23/10 4/25/10 10/6/10 9/5/10
f 15/15/11 10/19/11 4/26/11 2/27/11
f 14/21/12 10/19/12 12/14/12
f 13/18/13 14/21/13 12/14/13 11/13/13
f 16/16/14 15/15/14 2/27/14 1/24/14
f 16/16/15 9/5/15 11/13/15
f 13/18/16 11/13/16 9/5/16
