# Blender v3.0.1 OBJ File: 'Snow_AssetsCollection.blend'
# www.blender.org
mtllib Curved_Woodlog.mtl
o Curved_Old_Woodlog_Cube.012
v -1.002909 0.056244 0.130534
v -1.009031 0.133419 -0.002581
v -0.940500 -0.119329 0.058569
v -0.970804 0.069845 -0.085050
v 0.893543 0.030955 0.140902
v 0.996433 0.146853 -0.020372
v 0.819327 -0.104434 0.057048
v 0.985432 0.044503 -0.110853
v 0.351508 -0.104989 0.002520
v 0.568094 0.022853 -0.155387
v 0.418409 0.016833 0.109069
v 0.463039 0.134623 -0.034163
v -1.014232 0.081639 0.111598
v 0.398383 0.072317 0.081678
v -0.936113 -0.102382 -0.059689
v 0.948316 -0.041601 -0.107899
v 0.512484 -0.083421 -0.097997
v -0.250876 -0.068504 -0.043200
v -0.219514 0.156865 -0.016004
v -0.352077 0.010273 -0.149901
v -0.399203 0.042271 0.073306
v -0.364803 0.076749 0.075887
v -0.358339 -0.074998 -0.101481
v -0.745408 -0.139739 -0.032780
v -0.717000 0.116365 -0.002944
v -0.729554 0.068226 0.096188
v -0.603704 -0.019733 -0.132911
v -0.719571 0.017758 0.135610
v -0.696656 -0.091485 -0.096410
v 0.022362 0.022318 0.121451
vt 0.999895 0.559578
vt 0.855834 0.561424
vt 0.855814 0.559578
vt 0.855814 0.453804
vt 0.592491 0.935002
vt 0.705760 0.988348
vt 0.000106 0.988348
vt 0.000106 0.935002
vt 0.711522 0.453804
vt 0.855582 0.451958
vt 0.855603 0.453804
vt 0.711522 0.559578
vt 0.887431 0.721617
vt 0.945423 0.668271
vt 0.999894 0.668271
vt 0.999894 0.721617
vt 0.493132 0.881656
vt 0.000106 0.881656
vt 0.000106 0.774963
vt 0.351050 0.774963
vt 0.934618 0.561579
vt 0.999894 0.561579
vt 0.000106 0.561579
vt 0.705759 0.561579
vt 0.754445 0.668271
vt 0.000106 0.668271
vt 0.774968 0.881656
vt 0.530329 0.774963
vt 0.711905 0.774963
vt 0.000106 0.721617
vt 0.493132 0.721617
vt 0.819068 0.935002
vt 0.869343 0.988348
vt 0.999874 0.451958
vt 0.999895 0.453804
vt 0.855603 0.559578
vt 0.855900 0.774963
vt 0.999894 0.774963
vt 0.887431 0.881656
vt 0.909481 0.935002
vt 0.774968 0.721617
vt 0.934619 0.988348
vt 0.869343 0.561579
vt 0.890952 0.668271
vt 0.999894 0.881656
vt 0.999895 0.935002
vt 0.999895 0.988348
vn -0.9082 -0.3788 -0.1779
vn 0.0625 -0.3260 -0.9433
vn 0.7920 -0.5168 0.3251
vn 0.0593 0.9021 0.4275
vn -0.0661 -0.5700 0.8190
vn 0.0738 0.7524 -0.6545
vn 0.0182 0.7070 -0.7070
vn -0.1069 -0.7849 0.6103
vn -0.0140 0.8449 0.5348
vn 0.0001 -0.4836 -0.8753
vn -0.9596 -0.2508 -0.1278
vn 0.8818 -0.3621 0.3024
vn -0.0731 0.4201 0.9045
vn 0.0709 0.6206 0.7809
vn -0.0269 -0.9943 -0.1034
vn 0.0575 -0.9678 -0.2449
vn 0.0910 -0.9279 -0.3617
vn 0.0096 0.5774 0.8164
vn 0.0048 -0.4781 -0.8783
vn 0.1443 -0.6887 0.7106
vn -0.0063 0.7030 -0.7112
vn 0.0200 0.8151 0.5790
vn 0.0754 -0.5781 0.8125
vn -0.1613 -0.2062 -0.9651
vn -0.1285 -0.9210 -0.3677
vn 0.0933 0.3735 0.9229
vn -0.0933 0.6828 -0.7247
vn -0.0268 0.8400 0.5419
vn -0.0535 -0.7521 0.6569
vn -0.1117 0.0371 0.9931
g Curved_Old_Woodlog_Cube.012_PSX_WoodLog
usemtl PSX_WoodLog
s off
f 1/1/1 13/2/1 2/3/1 4/4/1
f 17/5/2 10/6/2 8/7/2 16/8/2
f 7/9/3 16/10/3 8/11/3 5/12/3
f 26/13/4 25/14/4 2/15/4 13/16/4
f 9/17/5 7/18/5 5/19/5 11/20/5
f 27/21/6 4/22/6 2/15/6 25/14/6
f 8/23/7 10/24/7 12/25/7 6/26/7
f 18/27/8 30/28/8 21/29/8
f 5/30/9 6/26/9 12/25/9 14/31/9
f 23/32/10 20/33/10 10/6/10 17/5/10
f 4/4/11 15/34/11 3/35/11 1/1/11
f 5/12/12 8/11/12 6/36/12
f 5/30/13 14/31/13 11/20/13
f 28/37/14 26/13/14 13/16/14 1/38/14
f 18/27/15 23/32/15 17/5/15 9/17/15
f 9/17/16 17/5/16 16/8/16 7/18/16
f 24/39/17 29/40/17 23/32/17 18/27/17
f 11/20/18 14/31/18 22/41/18 30/28/18
f 29/40/19 27/42/19 20/33/19 23/32/19
f 24/39/20 18/27/20 21/29/20 28/37/20
f 10/24/21 20/43/21 19/44/21 12/25/21
f 14/31/22 12/25/22 19/44/22 22/41/22
f 3/45/23 24/39/23 28/37/23 1/38/23
f 15/46/24 4/47/24 27/42/24 29/40/24
f 3/45/25 15/46/25 29/40/25 24/39/25
f 21/29/26 22/41/26 26/13/26 28/37/26
f 20/43/27 27/21/27 25/14/27 19/44/27
f 22/41/28 19/44/28 25/14/28 26/13/28
f 30/28/29 18/27/29 9/17/29 11/20/29
f 30/28/30 22/41/30 21/29/30
