# Blender v3.0.1 OBJ File: 'Snow_AssetsCollection.blend'
# www.blender.org
mtllib Rocky_Wall.mtl
o Rocky_Wall_ROCKWALL_LOW_Plane.005
v -1.637266 -0.169944 0.007583
v -0.142139 -0.129733 0.556177
v -0.308054 0.579092 0.501287
v -1.961507 0.552342 0.172251
v 0.814911 0.691909 0.399128
v 0.646167 -0.050486 0.500413
v 1.039268 -0.051773 0.393567
v 1.495387 0.715556 0.229063
v 1.767245 -0.008955 -0.032244
v 2.206301 0.713862 -0.092144
v 1.233412 1.571987 0.347860
v 0.809980 1.466810 0.385465
v -0.103344 1.416728 0.501549
v -1.853234 1.652085 0.174256
v 1.939752 0.985571 0.016490
v 2.145198 1.721157 -0.063634
v 1.375878 2.364643 0.151440
v 1.103070 2.305698 0.232821
v 0.018056 2.270118 0.677886
v -1.812942 2.297399 0.383661
v 1.815777 1.932242 -0.008415
v 2.002378 2.483572 -0.272224
v -2.200520 2.247415 0.047211
v -2.140145 1.562113 -0.231566
v -2.166902 1.329776 -0.202218
v -2.202518 0.698889 -0.120070
v -2.243117 0.468858 -0.037990
v -2.225185 -0.085460 -0.307815
v -1.813372 1.483170 -0.660581
v -1.933609 0.765083 -0.516543
v -1.837509 2.099516 -0.503167
v -2.015138 -0.064955 -0.691298
v 1.877228 1.926799 -0.367443
v 2.034612 2.363309 -0.402412
v 1.885461 0.973856 -0.465173
v 2.090607 1.727627 -0.451589
v 1.675868 0.007222 -0.386483
v 2.103958 0.790803 -0.440880
v 1.223675 1.594848 -0.537586
v 1.348751 2.327671 -0.764225
v 1.360873 0.830127 -0.626478
v 0.785859 0.008014 -0.475533
v 0.582113 0.743605 -0.242893
v 0.343031 -0.017585 -0.361167
v -0.282403 -0.098163 -0.331537
v -0.681876 0.731932 -0.252473
v 0.676180 1.577969 -0.362819
v -0.292787 1.380041 -0.310225
v 0.710365 2.219326 -0.417127
v -0.498749 2.061795 -0.233879
v 1.608918 2.626287 -0.196076
v 0.575866 2.528793 0.282513
v -0.191387 2.501052 0.448472
v -1.669178 2.524012 0.201201
v -0.210647 2.337939 0.006733
v -1.824757 2.430197 -0.075474
v 1.616874 2.600859 -0.541922
v 0.619556 2.452823 -0.146481
v -0.303076 -0.233885 0.181385
v -1.806501 -0.141931 -0.269736
v 1.075135 -0.201108 0.068359
v 0.507008 -0.233910 0.288229
vt 0.426324 0.219732
vt 0.418387 0.468459
vt 0.305962 0.441114
vt 0.311168 0.181177
vt 0.285804 0.617192
vt 0.405410 0.593000
vt 0.403185 0.658596
vt 0.276864 0.722022
vt 0.384283 0.799963
vt 0.282543 0.816896
vt 0.152631 0.680691
vt 0.166501 0.616970
vt 0.172996 0.472819
vt 0.133722 0.182976
vt 0.239416 0.796381
vt 0.148916 0.812506
vt 0.040378 0.713882
vt 0.045806 0.672457
vt 0.036905 0.494954
vt 0.026571 0.202471
vt 0.108247 0.787263
vt 0.013606 0.820611
vt 0.037545 0.124385
vt 0.156152 0.100208
vt 0.194115 0.106086
vt 0.294334 0.120929
vt 0.328728 0.132185
vt 0.418436 0.116493
vt 0.172084 0.012541
vt 0.285699 0.044205
vt 0.074312 0.026737
vt 0.428343 0.044357
vt 0.101407 0.850036
vt 0.024417 0.841454
vt 0.244374 0.867971
vt 0.145781 0.847613
vt 0.388493 0.862185
vt 0.273055 0.849159
vt 0.134775 0.968886
vt 0.029161 0.954149
vt 0.261857 0.956445
vt 0.428343 0.974670
vt 0.579624 0.857291
vt 0.615136 0.973232
vt 0.711895 0.983942
vt 0.769452 0.854101
vt 0.556517 0.731706
vt 0.708194 0.754595
vt 0.545012 0.633165
vt 0.734544 0.647207
vt 0.984606 0.976084
vt 0.964943 0.845652
vt 0.948770 0.732045
vt 0.944217 0.634259
vt 0.474623 0.311922
vt 0.455465 0.272807
vt 0.475511 0.207410
vt 0.554693 0.353858
vt 0.815495 0.623880
vt 0.575144 0.468201
vt 0.633532 0.450544
vt 0.820212 0.573499
vt 0.687240 0.394069
vt 0.866549 0.560617
vt 0.500526 0.172889
vt 0.591504 0.294330
vt 0.619576 0.243334
vt 0.556151 0.146939
vt 0.934684 0.511786
vt 0.761350 0.382527
vt 0.442814 0.132667
vt 0.433492 0.161206
vt 0.903896 0.621123
vt 0.921386 0.457495
vt 0.742219 0.252231
vt 0.794597 0.189705
vt 0.935492 0.385507
vt 0.660914 0.198336
vt 0.596345 0.168259
vt 0.621130 0.072311
vt 0.707614 0.101715
vt 0.714967 0.054601
vt 0.656560 0.030450
vt 0.940899 0.335656
vt 0.812284 0.127374
vt 0.983117 0.430126
vt 0.527792 0.014033
vt 0.502488 0.065554
vt 0.433115 0.618468
vt 0.468303 0.732554
vt 0.448622 0.850343
vt 0.544526 0.971996
vn -0.2617 -0.1626 0.9513
vn 0.2479 0.0676 0.9664
vn 0.4592 -0.1439 0.8766
vn 0.1884 -0.0324 0.9815
vn -0.1876 0.0292 0.9818
vn 0.4198 -0.0071 0.9076
vn 0.1255 0.1754 0.9765
vn -0.1827 -0.2265 0.9567
vn 0.4838 0.1752 0.8575
vn -0.6902 -0.2584 0.6759
vn -0.7783 0.0935 0.6209
vn -0.4756 -0.3950 0.7860
vn -0.8077 -0.0055 -0.5895
vn -0.7924 0.1470 -0.5921
vn -0.8702 0.1864 -0.4560
vn 0.9364 -0.2522 0.2441
vn 0.9559 -0.2688 -0.1181
vn 0.8194 -0.4938 -0.2912
vn 0.4214 -0.2937 -0.8580
vn 0.1633 0.0592 -0.9848
vn 0.1565 -0.2209 -0.9627
vn -0.0165 0.1214 -0.9925
vn -0.0082 -0.1164 -0.9932
vn -0.1081 0.0025 -0.9941
vn 0.2050 0.1862 -0.9609
vn 0.2169 0.2101 -0.9533
vn 0.2011 -0.2161 -0.9554
vn 0.2486 0.6121 0.7507
vn -0.1122 0.6559 0.7465
vn 0.0722 0.9334 -0.3514
vn -0.1778 0.9742 -0.1393
vn -0.3804 0.7099 -0.5928
vn 0.1140 0.7094 -0.6955
vn 0.4387 0.2676 -0.8579
vn 0.3588 0.6141 0.7030
vn 0.4277 0.8738 -0.2313
vn -0.5104 0.7120 0.4822
vn -0.5002 0.7893 -0.3561
vn -0.8218 -0.0573 -0.5669
vn -0.7941 0.0147 -0.6076
vn 0.3480 0.3118 0.8841
vn 0.6040 0.7969 0.0066
vn 0.0270 0.4134 -0.9101
vn 0.2472 0.1685 -0.9542
vn 0.6758 0.7338 -0.0698
vn 0.4115 0.0396 0.9105
vn -0.8223 0.1636 0.5451
vn -0.6244 0.3579 0.6943
vn 0.0188 -0.9741 -0.2255
vn -0.0506 -0.9466 -0.3183
vn 0.1942 -0.8503 0.4892
vn -0.0667 -0.9866 0.1490
vn -0.1261 -0.9888 -0.0804
vn 0.2990 -0.8543 0.4253
vn 0.1130 -0.9514 -0.2865
vn 0.0312 -0.9038 0.4269
vn 0.0694 -0.9523 -0.2970
vn -0.2050 0.7316 -0.6502
vn -0.1383 0.9540 -0.2658
vn 0.2193 0.6454 0.7317
vn -0.3862 -0.1416 -0.9115
vn -0.3860 -0.0283 -0.9221
vn -0.3854 0.1795 -0.9051
vn 0.2727 -0.0802 0.9588
vn 0.1070 -0.0050 0.9943
vn 0.0712 0.1066 0.9917
g Rocky_Wall_ROCKWALL_LOW_Plane.005_PSX_RockWall
usemtl PSX_RockWall
s 1
f 1/1/1 2/2/1 3/3/1 4/4/1
f 5/5/2 6/6/2 7/7/2 8/8/2
f 8/8/3 7/7/3 9/9/3 10/10/3
f 5/5/4 8/8/4 11/11/4 12/12/4
f 4/4/5 3/3/5 13/13/5 14/14/5
f 11/11/6 8/8/6 15/15/6 16/16/6
f 12/12/7 11/11/7 17/17/7 18/18/7
f 14/14/8 13/13/8 19/19/8 20/20/8
f 17/17/9 11/11/9 21/21/9 22/22/9
f 14/14/10 20/20/10 23/23/10 24/24/10
f 4/4/11 14/14/11 25/25/11 26/26/11
f 1/1/12 4/4/12 27/27/12 28/28/12
f 26/26/13 25/25/13 29/29/13 30/30/13
f 24/24/14 23/23/14 31/31/14 29/29/14
f 28/28/15 27/27/15 30/30/15 32/32/15
f 22/22/16 21/21/16 33/33/16 34/34/16
f 16/16/17 15/15/17 35/35/17 36/36/17
f 10/10/18 9/9/18 37/37/18 38/38/18
f 34/34/19 33/33/19 39/39/19 40/40/19
f 36/36/20 35/35/20 41/41/20 39/39/20
f 38/38/21 37/37/21 42/42/21 41/41/21
f 43/43/22 44/44/22 45/45/22 46/46/22
f 47/47/23 43/43/23 46/46/23 48/48/23
f 49/49/24 47/47/24 48/48/24 50/50/24
f 46/46/25 45/45/25 32/51/25 30/52/25
f 50/50/26 48/48/26 29/53/26 31/54/26
f 48/48/27 46/46/27 30/52/27 29/53/27
f 18/55/28 17/56/28 51/57/28 52/58/28
f 20/59/29 19/60/29 53/61/29 54/62/29
f 54/62/30 53/61/30 55/63/30 56/64/30
f 52/58/31 51/57/31 57/65/31 58/66/31
f 49/67/32 58/66/32 57/65/32 40/68/32
f 31/69/33 56/64/33 55/63/33 50/70/33
f 34/71/34 40/68/34 57/65/34
f 17/56/35 22/72/35 51/57/35
f 34/71/36 57/65/36 51/57/36 22/72/36
f 20/59/37 54/62/37 23/73/37
f 23/73/38 54/62/38 56/64/38 31/69/38
f 30/30/39 27/27/39 26/26/39
f 24/24/40 29/29/40 25/25/40
f 11/11/41 16/16/41 21/21/41
f 21/21/42 16/16/42 36/36/42 33/33/42
f 39/39/43 33/33/43 36/36/43
f 41/41/44 35/35/44 38/38/44
f 15/15/45 10/10/45 38/38/45 35/35/45
f 10/10/46 15/15/46 8/8/46
f 25/25/47 14/14/47 24/24/47
f 4/4/48 26/26/48 27/27/48
f 32/74/49 45/75/49 59/76/49 60/77/49
f 44/78/50 42/79/50 61/80/50 62/81/50
f 6/82/51 62/81/51 61/80/51 7/83/51
f 1/84/52 60/77/52 59/76/52 2/85/52
f 28/86/53 32/74/53 60/77/53 1/84/53
f 9/87/54 7/83/54 61/80/54
f 9/87/55 61/80/55 42/79/55 37/88/55
f 2/85/56 59/76/56 62/81/56 6/82/56
f 45/75/57 44/78/57 62/81/57 59/76/57
f 50/70/58 55/63/58 58/66/58 49/67/58
f 53/61/59 52/58/59 58/66/59 55/63/59
f 19/60/60 18/55/60 52/58/60 53/61/60
f 40/89/61 39/90/61 47/47/61 49/49/61
f 39/90/62 41/91/62 43/43/62 47/47/62
f 41/91/63 42/92/63 44/44/63 43/43/63
f 13/13/64 12/12/64 18/18/64 19/19/64
f 3/3/65 5/5/65 12/12/65 13/13/65
f 3/3/66 2/2/66 6/6/66 5/5/66
