# Blender v3.0.1 OBJ File: 'Snow_AssetsCollection.blend'
# www.blender.org
mtllib Snowy_Tree.mtl
o Snowy_Tree_Cube.040
v -0.260214 -0.127650 0.432923
v -0.049049 5.473477 0.041372
v -0.452977 -0.387972 0.035065
v 0.202841 -0.258012 0.269979
v 0.237906 -0.310314 -0.089307
v -0.056308 2.058725 0.006039
v -0.103815 2.063371 -0.166952
v 0.131160 2.066563 -0.154131
v 0.106939 2.076687 -0.059331
v -0.029231 2.991791 -0.011935
v -0.051409 2.998214 -0.083244
v 0.074261 2.975432 -0.082808
v 0.132726 2.989897 -0.018202
v -0.478813 -0.318020 0.143190
v 0.309333 -0.312918 0.057344
v 0.155124 2.075255 -0.099011
v -0.102511 2.059803 -0.057589
v -0.058951 2.994182 -0.046604
v -0.016746 -0.273349 -0.182615
v -0.162139 -0.289599 0.610070
v -0.003657 2.065712 -0.220209
v 0.043534 2.994167 0.035893
v -0.008427 2.987266 -0.090611
v -0.150337 0.994983 -0.133098
v 0.167526 1.013847 -0.035711
v 0.098233 0.956953 0.129370
v -0.130742 0.889368 0.078358
v -0.224132 0.960060 -0.018162
v -0.012124 1.024906 -0.186970
v 0.039126 0.946673 0.182434
v -0.096096 4.451061 0.021148
v -0.107684 4.454242 -0.008607
v -0.010387 4.433024 -0.035408
v -0.003480 4.454290 0.012849
v -0.029702 4.449181 0.036929
v 0.395340 4.013445 0.003741
v -1.464372 5.710510 -0.125565
v -0.453928 3.082062 -0.005720
v -2.313641 4.779127 -0.135026
v -0.645304 4.695994 -0.451331
v -1.494572 3.764612 -0.460791
v -0.046169 1.308056 -0.095906
v -1.790556 1.567239 0.432500
v 0.084778 2.219078 -0.110477
v -1.659610 2.478260 0.417929
v -0.853260 1.307113 0.444000
v -0.722313 2.218134 0.429429
v 0.602073 4.536591 -0.015962
v 0.476399 7.045261 0.198656
v -0.656780 4.475069 -0.033976
v -0.782453 6.983739 0.180642
v 0.563649 5.906818 -0.158945
v -0.695203 5.845296 -0.176959
v -0.323581 4.387743 0.014793
v -1.198661 5.456332 -0.065315
v 0.212072 4.825130 -0.002076
v -0.663009 5.893720 -0.082183
v -0.730067 4.894269 0.229623
v -0.194414 5.331656 0.212754
v -0.195197 2.478040 0.177744
v -1.609081 3.471623 1.302849
v 0.156777 3.380063 -0.176521
v -1.257107 4.373647 0.948585
v 0.341887 3.106197 0.003741
v -1.991122 4.052575 -0.125565
v -0.131462 1.938006 -0.005720
v -2.464471 2.884384 -0.135026
v -1.045153 3.395007 -0.426069
v -1.518502 2.226816 -0.435530
v -0.147930 3.591203 -0.055867
v 1.225724 4.161325 0.154657
v 0.137619 2.896775 -0.038463
v 1.511273 3.466897 0.172062
v 0.546662 3.756243 0.281319
v 0.832211 3.061815 0.298723
v 0.081036 1.781360 0.121129
v 1.574547 1.676444 -1.290339
v -0.201096 2.700215 -0.245701
v 1.292416 2.595299 -1.657169
v 0.663430 1.461987 -0.737163
v 0.381299 2.380841 -1.103994
v 0.323153 3.494694 -0.045889
v 1.330088 4.719357 -0.063277
v -0.285027 3.995965 0.039840
v 0.721908 5.220629 0.022452
v 0.759592 4.075201 -0.341119
v 0.151412 4.576472 -0.255390
v 0.250252 2.312354 -0.241630
v 1.237148 3.039527 -1.121880
v 0.007622 2.972517 0.031704
v 0.994518 3.699690 -0.848546
v -0.345347 3.106197 -0.256974
v 1.597398 4.052575 1.041252
v 0.057354 1.938006 -0.008015
v 2.000099 2.884384 1.290211
v 0.630117 3.395007 0.818706
v 1.032819 2.226816 1.067664
v 0.195325 4.013445 -0.463985
v -0.558215 5.710510 1.241132
v -0.102153 3.082062 0.331535
v -0.855693 4.779127 2.036653
v -0.586278 4.695994 0.360105
v -0.883757 3.764612 1.155626
v -0.036406 1.709179 -0.184634
v -0.138169 1.678214 2.518936
v 0.018242 3.060792 -0.167096
v -0.083522 3.029827 2.536474
v 0.325183 1.494030 1.179021
v 0.379830 2.845643 1.196558
v -0.164135 3.786075 0.316453
v -0.711575 5.355703 1.485374
v 0.079919 4.428545 -0.431959
v -0.467521 5.998173 0.736962
v -0.070239 4.530099 0.985232
v 0.173814 5.172569 0.236820
v -0.088075 1.738700 -0.099272
v 0.975339 1.384655 0.519577
v 0.087157 2.352369 -0.049305
v 1.150571 1.998324 0.569544
v 0.177162 3.106197 -0.413713
v -0.737204 4.052575 1.736539
v 0.007421 1.938006 0.028256
v -0.906945 2.884384 2.178508
v -0.698389 3.395007 0.744747
v -0.868130 2.226815 1.186716
v -0.246588 3.817316 0.140732
v 0.884059 5.043169 -0.590651
v 0.248246 3.144544 -0.221920
v 1.378893 4.370398 -0.953303
v 0.551980 4.310348 -0.047385
v 1.046814 3.637576 -0.410037
v 0.013582 1.709179 -0.005408
v -1.367036 1.678214 -2.332109
v -0.041843 3.060792 0.009492
v -1.422461 3.029827 -2.317210
v -1.029718 1.494030 -0.955053
v -1.085143 2.845643 -0.940153
v 0.199531 3.786075 -0.365371
v 1.021519 5.355703 -1.360560
v -0.223677 4.428544 0.298390
v 0.598311 5.998173 -0.696799
v 0.275610 4.530099 -1.036409
v -0.147598 5.172569 -0.372649
v -0.165287 2.890478 -0.162914
v -1.057442 3.661956 -1.245714
v 0.114396 3.590863 0.105659
v -0.777759 4.362341 -0.977141
v -0.041628 3.106197 0.302878
v -0.439447 4.052575 -1.999597
v -0.138689 1.938006 -0.160510
v -0.536507 2.884384 -2.462984
v 0.065780 3.395007 -1.145252
v -0.031280 2.226815 -1.608640
vt 0.923911 0.453395
vt 0.963871 0.077016
vt 0.960897 0.452160
vt 0.761751 0.140483
vt 0.361858 0.094825
vt 0.779180 0.068288
vt 0.727777 0.228997
vt 0.350015 0.215026
vt 0.350420 0.183623
vt 0.755104 0.168398
vt 0.720256 0.315600
vt 0.355710 0.316665
vt 0.354760 0.244814
vt 0.748421 0.417376
vt 0.355926 0.425981
vt 0.356145 0.371665
vt 0.732475 0.369493
vt 0.019437 0.139827
vt 0.023010 0.081736
vt 0.023339 0.208634
vt 0.029893 0.323008
vt 0.037239 0.265809
vt 0.021442 0.377497
vt 0.021861 0.352202
vt 0.353369 0.465975
vt 0.018329 0.407709
vt 0.773331 0.465975
vt 0.877298 0.460554
vt 0.909029 0.080672
vt 0.904514 0.450592
vt 0.808547 0.436581
vt 0.894149 0.071716
vt 0.825584 0.439411
vt 0.940554 0.091351
vt 0.212000 0.530405
vt 0.257494 0.940773
vt 0.230567 0.939963
vt 0.043956 0.535793
vt 0.602059 0.508418
vt 0.447354 0.962288
vt 0.396790 0.968126
vt 0.435436 0.533167
vt 0.345852 0.511944
vt 0.318433 0.957474
vt 0.291093 0.508418
vt 0.730199 0.637473
vt 0.545239 0.951992
vt 0.494338 0.955879
vt 0.635448 0.537348
vt 0.162390 0.954568
vt 0.018581 0.619229
vt 0.727002 0.941899
vt 0.752940 0.955191
vt 0.860926 0.974049
vt 0.927133 0.968484
vt 0.673244 0.932084
vt 0.702412 0.937940
vt 0.803797 0.974086
vt 0.982983 0.965891
vt 0.500000 0.500000
vt 1.000000 0.500000
vt 1.000000 1.000000
vt 0.500000 1.000000
vt 0.000000 0.500000
vt 0.000000 1.000000
vt 0.500000 0.000000
vt 1.000000 0.000000
vt 1.000000 0.500000
vt 0.500000 0.500000
vt 0.000000 0.000000
vt 0.000000 0.500000
vt 0.528882 0.500000
vt 1.000000 0.500000
vt 1.000000 1.000000
vt 0.528882 1.000000
vt 0.000000 0.500000
vt 0.000000 1.000000
vt 0.500000 0.000000
vt 1.000000 0.000000
vt 1.000000 0.500000
vt 0.500000 0.500000
vt 0.000000 0.000000
vt 0.000000 0.500000
vt 0.000000 0.000000
vt 1.000000 0.000000
vt 1.000000 0.500000
vt 0.000000 0.500000
vt 0.500000 0.500000
vt 1.000000 0.500000
vt 1.000000 1.000000
vt 0.500000 1.000000
vt 0.000000 0.500000
vt 0.000000 1.000000
vt 0.500000 0.500000
vt 1.000000 0.500000
vt 1.000000 1.000000
vt 0.500000 1.000000
vt 0.000000 0.500000
vt 0.000000 1.000000
vt 0.500000 0.000000
vt 1.000000 0.000000
vt 1.000000 0.500000
vt 0.500000 0.500000
vt 0.000000 0.000000
vt 0.000000 0.500000
vt 0.500000 0.000000
vt 1.000000 0.000000
vt 1.000000 0.500000
vt 0.500000 0.500000
vt 0.000000 0.000000
vt 0.000000 0.500000
vt 0.000000 0.000000
vt 1.000000 0.000000
vt 1.000000 0.500000
vt 0.000000 0.500000
vt 0.500000 0.500000
vt 1.000000 0.500000
vt 1.000000 1.000000
vt 0.500000 1.000000
vt 0.000000 0.500000
vt 0.000000 1.000000
vt 0.500000 0.500000
vt 1.000000 0.500000
vt 1.000000 1.000000
vt 0.500000 1.000000
vt 0.000000 0.500000
vt 0.000000 1.000000
vt 0.500000 0.000000
vt 1.000000 0.000000
vt 1.000000 0.500000
vt 0.500000 0.500000
vt 0.000000 0.000000
vt 0.000000 0.500000
vt 0.500000 0.000000
vt 1.000000 0.000000
vt 1.000000 0.500000
vt 0.500000 0.500000
vt 0.000000 0.000000
vt 0.000000 0.500000
vt 0.000000 0.000000
vt 1.000000 0.000000
vt 1.000000 0.500000
vt 0.000000 0.500000
vt 0.500000 0.500000
vt 1.000000 0.500000
vt 1.000000 1.000000
vt 0.500000 1.000000
vt 0.000000 0.500000
vt 0.000000 1.000000
vt 0.500000 0.500000
vt 1.000000 0.500000
vt 1.000000 1.000000
vt 0.500000 1.000000
vt 0.000000 0.500000
vt 0.000000 1.000000
vt 0.500000 0.000000
vt 1.000000 0.000000
vt 1.000000 0.500000
vt 0.500000 0.500000
vt 0.000000 0.000000
vt 0.000000 0.500000
vt 0.500000 0.000000
vt 1.000000 0.000000
vt 1.000000 0.500000
vt 0.500000 0.500000
vt 0.000000 0.000000
vt 0.000000 0.500000
vt 0.000000 0.000000
vt 1.000000 0.000000
vt 1.000000 0.500000
vt 0.000000 0.500000
vt 0.500000 0.500000
vt 1.000000 0.500000
vt 1.000000 1.000000
vt 0.500000 1.000000
vt 0.000000 0.500000
vt 0.000000 1.000000
vn -0.2315 -0.0086 0.9728
vn -0.5415 0.0862 0.8363
vn 0.8587 0.0603 0.5090
vn 0.5666 -0.0520 -0.8223
vn -0.9528 0.0639 -0.2970
vn -0.5497 0.0320 0.8347
vn 0.6339 -0.0527 0.7716
vn 0.3247 0.1140 -0.9389
vn -0.9978 0.0532 -0.0399
vn -0.7905 0.0322 0.6117
vn 0.8132 0.0834 -0.5760
vn -0.7285 0.0963 0.6782
vn 0.9177 -0.0130 -0.3970
vn 0.9855 0.0486 -0.1625
vn -0.9299 0.0356 0.3660
vn -0.3815 0.1152 -0.9172
vn 0.4297 -0.0638 0.9007
vn -0.4078 -0.0184 -0.9129
vn 0.4479 0.1613 0.8794
vn 0.6753 0.0096 0.7374
vn -0.2525 0.0619 -0.9656
vn 0.6651 0.1436 0.7328
vn -0.4254 -0.0095 -0.9050
vn 0.8976 0.0654 -0.4360
vn -0.7891 0.2574 0.5577
vn -0.8965 0.1355 -0.4217
vn 0.4929 0.0287 -0.8696
vn 0.8992 0.1257 0.4191
vn -0.6156 0.3376 0.7121
vn -0.2280 0.0390 -0.9729
vn 0.5604 0.0311 0.8277
vn -0.8427 -0.0464 0.5363
vn 0.8517 0.0783 -0.5181
vn -0.4154 -0.0306 0.9091
vn 0.0993 0.0381 -0.9943
vn -0.9785 -0.0273 -0.2044
vn -0.1754 0.1698 -0.9697
vn 0.2606 -0.2281 -0.9381
vn 0.0075 -0.0171 -0.9998
vn -0.5548 0.0665 -0.8293
vn -0.0010 0.2996 -0.9541
vn 0.0193 -0.1032 -0.9945
vn 0.2190 -0.3040 -0.9272
vn -0.2166 0.2287 -0.9491
vn -0.6429 -0.0493 -0.7644
vn -0.2353 0.1032 -0.9664
vn 0.2747 -0.1036 -0.9559
vn 0.1360 0.0807 0.9874
vn -0.4044 -0.1436 0.9033
vn 0.3872 0.4419 0.8092
vn 0.8180 0.4116 0.4019
vn -0.1173 -0.3040 0.9454
vn 0.3182 0.2287 0.9200
vn 0.6848 -0.0493 0.7270
vn -0.2891 0.1032 0.9517
vn -0.7228 -0.1036 0.6833
vn -0.9716 0.1698 -0.1646
vn -0.7937 -0.2281 -0.5639
vn -0.9424 0.0424 -0.3317
vn -0.9646 0.0356 0.2614
vn -0.7976 -0.3040 -0.5210
vn -0.9662 0.2287 -0.1188
vn -0.4850 0.0675 0.8719
vn -0.9889 0.1032 -0.1071
vn -0.8057 -0.1036 -0.5832
vn 0.7222 0.1698 0.6705
vn 0.3545 -0.2281 0.9068
vn 0.9717 0.0424 -0.2324
vn 0.6687 0.0356 -0.7427
vn 0.6422 -0.3040 0.7037
vn 0.9060 0.2287 0.3563
vn 0.7533 -0.0493 -0.6558
vn 0.8889 0.1032 -0.4463
vn 0.9932 -0.1036 0.0530
g Snowy_Tree_Cube.040_PSX_tree
usemtl PSX_tree
s off
f 35/1/1 2/2/1 31/3/1
f 30/4/2 6/5/2 27/6/2
f 25/7/3 16/8/3 9/9/3 26/10/3
f 29/11/4 21/12/4 8/13/4 25/7/4
f 28/14/5 17/15/5 7/16/5 24/17/5
f 6/5/6 22/18/6 10/19/6
f 16/8/7 13/20/7 9/9/7
f 21/12/8 23/21/8 12/22/8 8/13/8
f 17/15/9 18/23/9 11/24/9 7/16/9
f 6/25/10 10/26/10 18/23/10 17/15/10
f 8/13/11 12/22/11 13/20/11 16/8/11
f 27/27/12 6/25/12 17/15/12 28/14/12
f 25/7/13 8/13/13 16/8/13
f 33/28/14 2/29/14 34/30/14
f 31/31/15 2/32/15 32/33/15
f 7/16/16 11/24/16 23/21/16 21/12/16
f 9/9/17 13/20/17 22/18/17 6/5/17
f 24/17/18 7/16/18 21/12/18 29/11/18
f 26/10/19 9/9/19 6/5/19 30/4/19
f 34/30/20 2/34/20 35/1/20
f 32/33/21 2/29/21 33/28/21
f 4/35/22 26/36/22 30/37/22 20/38/22
f 3/39/23 24/40/23 29/41/23 19/42/23
f 5/43/24 25/44/24 15/45/24
f 1/46/25 27/47/25 28/48/25 14/49/25
f 14/49/26 28/48/26 24/40/26 3/39/26
f 19/42/27 29/41/27 25/44/27 5/43/27
f 15/45/28 25/44/28 26/36/28 4/35/28
f 20/38/29 30/37/29 27/50/29 1/51/29
f 11/52/30 32/33/30 33/28/30 23/53/30
f 13/54/31 34/30/31 35/1/31 22/55/31
f 10/56/32 31/31/32 32/33/32 18/57/32
f 12/58/33 33/28/33 34/30/33 13/54/33
f 22/55/34 35/1/34 31/3/34 10/59/34
f 23/53/35 33/28/35 12/58/35
f 18/57/36 32/33/36 11/52/36
g Snowy_Tree_Cube.040_SnowyBranches
usemtl SnowyBranches
f 41/60/37 39/61/37 37/62/37 40/63/37
f 38/64/38 41/60/38 40/63/38 36/65/38
f 46/66/39 43/67/39 45/68/39 47/69/39
f 42/70/40 46/66/40 47/69/40 44/71/40
f 53/72/41 51/73/41 49/74/41 52/75/41
f 50/76/42 53/72/42 52/75/42 48/77/42
f 58/78/43 55/79/43 57/80/43 59/81/43
f 54/82/44 58/78/44 59/81/44 56/83/44
f 60/84/45 61/85/45 63/86/45 62/87/45
f 69/88/46 67/89/46 65/90/46 68/91/46
f 66/92/47 69/88/47 68/91/47 64/93/47
f 75/94/48 73/95/48 71/96/48 74/97/48
f 72/98/49 75/94/49 74/97/49 70/99/49
f 80/100/50 77/101/50 79/102/50 81/103/50
f 76/104/51 80/100/51 81/103/51 78/105/51
f 86/106/52 83/107/52 85/108/52 87/109/52
f 82/110/53 86/106/53 87/109/53 84/111/53
f 88/112/54 89/113/54 91/114/54 90/115/54
f 97/116/55 95/117/55 93/118/55 96/119/55
f 94/120/56 97/116/56 96/119/56 92/121/56
f 103/122/57 101/123/57 99/124/57 102/125/57
f 100/126/58 103/122/58 102/125/58 98/127/58
f 108/128/59 105/129/59 107/130/59 109/131/59
f 104/132/60 108/128/60 109/131/60 106/133/60
f 114/134/61 111/135/61 113/136/61 115/137/61
f 110/138/62 114/134/62 115/137/62 112/139/62
f 116/140/63 117/141/63 119/142/63 118/143/63
f 125/144/64 123/145/64 121/146/64 124/147/64
f 122/148/65 125/144/65 124/147/65 120/149/65
f 131/150/66 129/151/66 127/152/66 130/153/66
f 128/154/67 131/150/67 130/153/67 126/155/67
f 136/156/68 133/157/68 135/158/68 137/159/68
f 132/160/69 136/156/69 137/159/69 134/161/69
f 142/162/70 139/163/70 141/164/70 143/165/70
f 138/166/71 142/162/71 143/165/71 140/167/71
f 144/168/72 145/169/72 147/170/72 146/171/72
f 153/172/73 151/173/73 149/174/73 152/175/73
f 150/176/74 153/172/74 152/175/74 148/177/74
