# Blender v3.0.1 OBJ File: 'Snow_AssetsCollection.blend'
# www.blender.org
mtllib Snowy_PineTree.mtl
o Snowy_Pinetree_Plane.009
v 0.215389 0.020572 -0.397645
v 0.144444 5.688018 0.017747
v 0.498779 -0.230418 -0.044693
v -0.200001 -0.101877 -0.123793
v -0.149155 -0.142588 0.238377
v 0.109934 2.232144 -0.160211
v 0.234053 2.246258 0.063762
v -0.096635 2.252855 0.124728
v -0.094848 2.262655 -0.015493
v 0.072513 3.178849 -0.118645
v 0.115574 3.188463 -0.046908
v -0.021785 3.163971 -0.013346
v -0.102704 3.178377 -0.068966
v 0.498463 -0.163628 -0.159132
v -0.253980 -0.149443 0.111681
v -0.148444 2.262987 0.055842
v 0.195492 2.236113 -0.087451
v 0.114129 3.182534 -0.088741
v 0.122675 -0.104281 0.268200
v 0.077200 -0.147730 -0.542549
v 0.112830 2.253190 0.171222
v -0.019590 3.180416 -0.151722
v 0.070580 3.176816 -0.027107
v 0.241920 1.171855 0.145341
v -0.092859 1.190205 0.124628
v -0.064074 1.126896 -0.051664
v 0.172545 1.058609 -0.053686
v 0.287013 1.132302 0.016383
v 0.119176 1.204880 0.229897
v -0.018706 1.114329 -0.117334
v 0.217602 4.658416 0.046718
v 0.245778 4.664670 0.086953
v 0.109579 4.634464 0.163501
v 0.081711 4.664932 0.092577
v 0.112301 4.655531 0.047236
v 0.225873 4.508949 0.179497
v 0.008670 4.539977 -0.061401
v -0.237119 4.788304 0.412564
v 0.132250 4.793920 0.080250
v -0.054439 4.755060 0.243570
v -0.113393 4.622609 0.175804
v -0.012966 4.614569 0.287293
v 0.656021 -0.133309 -0.509866
v -0.647713 -0.133309 0.502777
v 1.548375 1.238164 1.984574
v 0.004154 1.238164 -0.003544
v 0.776264 1.054668 0.990515
v 0.469029 0.343305 1.229151
v 1.069744 0.375153 0.762562
v 0.557152 0.539495 0.337103
v -0.455615 0.629917 -0.641887
v -1.493517 1.479256 1.527798
v 0.003194 1.745894 0.004074
v -0.738796 1.457215 0.745002
v -0.952786 0.876232 0.433139
v -0.487244 0.861533 0.887856
v -0.023175 -0.095078 0.847294
v 0.408508 -0.130994 -0.725663
v -2.292059 1.049465 -0.647638
v 0.101374 1.238173 0.004908
v -1.083128 0.963035 -0.313885
v -0.934046 0.253718 -0.655565
v -1.135071 0.301644 0.067899
v -0.546863 0.654641 0.202314
v 0.686315 0.727651 -0.105963
v -0.467998 1.628237 -1.880912
v -0.004499 1.745259 0.000907
v -0.226318 1.545713 -0.933678
v 0.102789 1.016166 -0.981808
v -0.467139 1.007004 -0.840863
v -0.818115 -0.105811 -0.323783
v 0.704279 -0.163600 0.319992
v 0.976215 1.201130 -2.325129
v -0.004798 1.238369 -0.001895
v 0.478735 1.036040 -1.163512
v 0.810464 0.310228 -1.011802
v 0.110209 0.368739 -1.308431
v -0.208673 0.682339 -0.609367
v 0.205567 0.682339 0.601491
v 1.844935 1.745546 -0.635631
v -0.001553 1.745546 -0.003938
v 0.921691 1.603295 -0.319784
v 1.019310 1.051825 -0.034437
v 0.828443 1.076514 -0.592357
v 0.539471 1.434920 0.001617
v -0.532387 1.434920 -0.001920
v -0.001853 2.325412 1.634368
v 0.003542 2.325412 -0.000151
v 0.000845 2.206270 0.817108
v -0.251746 1.744384 0.816275
v 0.242127 1.765063 0.817905
v -0.211267 1.459490 0.537843
v 0.097499 1.414711 -0.487607
v -1.562325 2.413001 -0.470789
v -0.000507 2.325538 0.003297
v -0.788959 2.250402 -0.230826
v -0.745438 1.779030 -0.461163
v -0.886397 1.820293 0.010821
v -0.394290 1.361903 -0.031899
v 0.564793 1.556224 0.405467
v 0.707478 2.080457 -1.453754
v -0.003804 2.324637 -0.002500
v 0.363752 2.086738 -0.702801
v 0.635959 1.683571 -0.501554
v 0.191980 1.614135 -0.707472
v 0.274943 1.434920 -0.464152
v -0.271612 1.434920 0.457893
v 1.407731 2.325412 0.830335
v 0.001666 2.325412 -0.003130
v 0.704698 2.206269 0.413603
v 0.575898 1.744384 0.630889
v 0.827732 1.765063 0.206044
v 0.477192 2.038113 -0.168335
v -0.416078 2.078882 0.202451
v 0.627733 2.862215 1.367360
v 0.061797 2.862010 0.003970
v 0.340585 2.754606 0.687416
v 0.113876 2.347444 0.781583
v 0.526188 2.347318 0.610434
v 0.565549 2.383070 0.084191
v -0.347185 2.374444 -0.238172
v -0.413625 3.020571 1.386104
v 0.073837 3.178344 0.001689
v -0.165165 2.992477 0.683370
v -0.361925 2.575711 0.566593
v 0.057810 2.598252 0.716953
v 0.078785 2.064536 0.502905
v -0.022499 2.052794 -0.459736
v -1.407578 2.921714 0.162116
v 0.059383 2.862177 0.008496
v -0.678277 2.784440 0.087057
v -0.718349 2.364903 -0.133008
v -0.670956 2.388972 0.310239
v -0.345333 2.394639 0.310819
v 0.420362 2.355243 -0.280143
v -0.832605 3.194457 -1.166687
v 0.068755 3.178453 0.002250
v -0.386105 3.078950 -0.580467
v -0.221867 2.652896 -0.712943
v -0.573946 2.689707 -0.440953
v -0.419625 2.056867 0.088411
v 0.548005 2.070360 0.112602
v 0.094520 2.687021 -1.460371
v 0.055447 2.862085 0.004874
v 0.076154 2.667722 -0.714954
v 0.308717 2.256746 -0.659649
v -0.137335 2.269071 -0.673017
v -0.352942 2.399257 -0.311538
v 0.287657 2.365681 0.413432
v 1.160169 2.973343 -0.975681
v 0.069418 3.178408 -0.002373
v 0.601138 2.969384 -0.481893
v 0.699163 2.548629 -0.283392
v 0.406368 2.582582 -0.618670
v 0.167484 2.045597 -0.448116
v -0.110605 2.071506 0.478744
v 1.472476 2.814061 0.427454
v 0.059680 2.862063 0.002226
v 0.761898 2.730557 0.216591
v 0.680161 2.319893 0.441801
v 0.809020 2.326613 0.014433
v 0.451556 3.006248 -0.048771
v -0.152699 2.986705 0.230538
v 0.497665 3.749161 0.896923
v 0.086576 3.537348 -0.007246
v 0.300530 3.570889 0.457967
v 0.190733 3.285741 0.574687
v 0.467693 3.307306 0.443713
v 0.199403 2.988130 0.316384
v 0.069139 2.984521 -0.336715
v -0.906640 3.446707 0.194906
v 0.085237 3.537390 -0.003430
v -0.404141 3.418319 0.094837
v -0.409405 3.131640 -0.062564
v -0.350523 3.146099 0.238517
v -0.271271 2.997593 0.002306
v 0.394197 2.971757 0.004554
v 0.085739 3.520818 -1.021004
v 0.082955 3.537467 -0.005574
v 0.081472 3.455182 -0.512084
v 0.227146 3.162369 -0.506884
v -0.078979 3.187109 -0.508129
v 0.109642 2.977394 -0.328604
v 0.018087 2.991696 0.330890
v 1.090509 3.500543 0.132478
v 0.085357 3.537336 -0.007861
v 0.585057 3.444979 0.063513
v 0.552334 3.161624 0.223598
v 0.595019 3.167871 -0.080482
v -0.066623 3.454452 -0.189182
v 0.440642 3.483773 0.269743
v 0.854683 4.073121 -0.736311
v 0.155770 4.037078 0.038523
v 0.509406 3.979109 -0.348659
v 0.645150 3.691423 -0.239598
v 0.410695 3.691102 -0.451095
v 0.238724 3.695082 -0.297896
v 0.114816 3.690351 0.375464
v 1.170789 4.317658 0.226088
v 0.145531 4.260682 0.037026
v 0.662339 4.213180 0.131793
v 0.649343 3.917469 0.291386
v 0.705710 3.932838 -0.018915
v 0.391469 3.465232 -0.206132
v -0.130066 3.473815 0.237396
v 0.833958 3.970773 0.832876
v 0.159553 4.037154 0.038573
v 0.492895 3.928018 0.432655
v 0.355026 3.635619 0.525277
v 0.596001 3.644845 0.321448
v -0.127069 3.722661 0.319246
v 0.416541 3.670622 -0.093756
v -0.491098 4.154041 -0.781799
v 0.143682 4.260830 0.040268
v -0.173567 4.131950 -0.361068
v -0.044915 3.827050 -0.420802
v -0.295415 3.864129 -0.232189
v 0.335263 3.478236 0.353497
v 0.044358 3.460319 -0.266053
v -0.784861 3.986727 0.486407
v 0.158571 4.037242 0.041964
v -0.308965 3.935994 0.264421
v -0.361315 3.637177 0.119331
v -0.228002 3.658621 0.404757
v -0.027613 4.163066 0.249529
v 0.159630 4.138350 -0.181989
v -0.516886 4.650772 -0.247799
v 0.131260 4.536515 0.039986
v -0.201543 4.542025 -0.104738
v -0.191263 4.336088 -0.209653
v -0.276022 4.356435 -0.010680
v 0.077002 4.704428 -0.094063
v 0.196300 4.748477 0.241971
v 0.647628 5.010039 -0.144625
v 0.130918 5.022617 0.037167
v 0.390040 4.976703 -0.048807
v 0.421127 4.833467 0.049463
v 0.366026 4.820048 -0.106224
v 0.329357 4.154958 -0.118205
v -0.021622 4.136624 0.195413
v 0.609816 4.564453 0.573343
v 0.132376 4.536534 0.037395
v 0.373971 4.498214 0.305530
v 0.302408 4.291221 0.380064
v 0.463627 4.308743 0.235532
vt 0.500000 0.500000
vt 1.000000 0.500000
vt 1.000000 1.000000
vt 0.500000 0.828939
vt 0.000000 0.500000
vt 0.500000 0.185788
vt 1.000000 0.000000
vt 0.500000 0.500000
vt 1.000000 0.500000
vt 1.000000 1.000000
vt 0.500000 0.828939
vt 0.000000 0.500000
vt 0.500000 0.185788
vt 1.000000 0.000000
vt 0.500000 0.500000
vt 1.000000 0.500000
vt 1.000000 1.000000
vt 0.500000 0.828939
vt 0.000000 0.500000
vt 0.500000 0.185788
vt 1.000000 0.000000
vt 0.500000 0.500000
vt 1.000000 0.500000
vt 1.000000 1.000000
vt 0.500000 0.828939
vt 0.000000 0.500000
vt 0.500000 0.185788
vt 1.000000 0.000000
vt 0.500000 0.500000
vt 1.000000 0.500000
vt 1.000000 1.000000
vt 0.500000 0.828939
vt 0.000000 0.500000
vt 0.500000 0.185788
vt 1.000000 0.000000
vt 0.500000 0.500000
vt 1.000000 0.500000
vt 1.000000 1.000000
vt 0.500000 0.828939
vt 0.000000 0.500000
vt 0.500000 0.185788
vt 1.000000 0.000000
vt 0.500000 0.500000
vt 1.000000 0.500000
vt 1.000000 1.000000
vt 0.500000 0.828939
vt 0.000000 0.500000
vt 0.500000 0.185788
vt 1.000000 0.000000
vt 0.500000 0.500000
vt 1.000000 0.500000
vt 1.000000 1.000000
vt 0.500000 0.828939
vt 0.000000 0.500000
vt 0.500000 0.185788
vt 1.000000 0.000000
vt 0.500000 0.500000
vt 1.000000 0.500000
vt 1.000000 1.000000
vt 0.500000 0.828939
vt 0.000000 0.500000
vt 0.500000 0.185788
vt 1.000000 0.000000
vt 0.500000 0.500000
vt 1.000000 0.500000
vt 1.000000 1.000000
vt 0.500000 0.828939
vt 0.000000 0.500000
vt 0.500000 0.185788
vt 1.000000 0.000000
vt 0.500000 0.500000
vt 1.000000 0.500000
vt 1.000000 1.000000
vt 0.500000 0.828939
vt 0.000000 0.500000
vt 0.500000 0.185788
vt 1.000000 0.000000
vt 0.500000 0.500000
vt 1.000000 0.500000
vt 1.000000 1.000000
vt 0.500000 0.828939
vt 0.000000 0.500000
vt 0.500000 0.185788
vt 1.000000 0.000000
vt 0.500000 0.500000
vt 1.000000 0.500000
vt 1.000000 1.000000
vt 0.500000 0.828939
vt 0.000000 0.500000
vt 0.500000 0.185788
vt 1.000000 0.000000
vt 0.500000 0.500000
vt 1.000000 0.500000
vt 1.000000 1.000000
vt 0.500000 0.828939
vt 0.000000 0.500000
vt 0.500000 0.185788
vt 1.000000 0.000000
vt 0.500000 0.500000
vt 1.000000 0.500000
vt 1.000000 1.000000
vt 0.500000 0.828939
vt 0.000000 0.500000
vt 0.500000 0.185788
vt 1.000000 0.000000
vt 0.500000 0.500000
vt 1.000000 0.500000
vt 1.000000 1.000000
vt 0.500000 0.828939
vt 0.000000 0.500000
vt 0.500000 0.185788
vt 1.000000 0.000000
vt 0.500000 0.500000
vt 1.000000 0.500000
vt 1.000000 1.000000
vt 0.500000 0.828939
vt 0.000000 0.500000
vt 0.500000 0.185788
vt 1.000000 0.000000
vt 0.500000 0.500000
vt 1.000000 0.500000
vt 1.000000 1.000000
vt 0.500000 0.828939
vt 0.000000 0.500000
vt 0.500000 0.185788
vt 1.000000 0.000000
vt 0.500000 0.500000
vt 1.000000 0.500000
vt 1.000000 1.000000
vt 0.500000 0.828939
vt 0.000000 0.500000
vt 0.500000 0.185788
vt 1.000000 0.000000
vt 0.500000 0.500000
vt 1.000000 0.500000
vt 1.000000 1.000000
vt 0.500000 0.828939
vt 0.000000 0.500000
vt 0.500000 0.185788
vt 1.000000 0.000000
vt 0.500000 0.500000
vt 1.000000 0.500000
vt 1.000000 1.000000
vt 0.500000 0.828939
vt 0.000000 0.500000
vt 0.500000 0.185788
vt 1.000000 0.000000
vt 0.500000 0.500000
vt 1.000000 0.500000
vt 1.000000 1.000000
vt 0.500000 0.828939
vt 0.000000 0.500000
vt 0.500000 0.185788
vt 1.000000 0.000000
vt 0.500000 0.500000
vt 1.000000 0.500000
vt 1.000000 1.000000
vt 0.500000 0.828939
vt 0.000000 0.500000
vt 0.500000 0.185788
vt 1.000000 0.000000
vt 0.500000 0.500000
vt 1.000000 0.500000
vt 1.000000 1.000000
vt 0.500000 0.828939
vt 0.000000 0.500000
vt 0.500000 0.185788
vt 1.000000 0.000000
vt 0.500000 0.500000
vt 1.000000 0.500000
vt 1.000000 1.000000
vt 0.500000 0.828939
vt 0.000000 0.500000
vt 0.500000 0.185788
vt 1.000000 0.000000
vt 0.500000 0.500000
vt 1.000000 0.500000
vt 1.000000 1.000000
vt 0.500000 0.828939
vt 0.000000 0.500000
vt 0.500000 0.185788
vt 1.000000 0.000000
vt 0.500000 0.500000
vt 1.000000 0.500000
vt 1.000000 1.000000
vt 0.500000 0.828939
vt 0.000000 0.500000
vt 0.500000 0.185788
vt 1.000000 0.000000
vt 0.500000 0.500000
vt 1.000000 0.500000
vt 1.000000 1.000000
vt 0.500000 0.828939
vt 0.000000 0.500000
vt 0.500000 0.185788
vt 1.000000 0.000000
vt 0.500000 0.500000
vt 1.000000 0.500000
vt 1.000000 1.000000
vt 0.500000 0.828939
vt 0.000000 0.500000
vt 0.500000 0.185788
vt 1.000000 0.000000
vt 0.500000 0.500000
vt 1.000000 0.500000
vt 1.000000 1.000000
vt 0.500000 0.828939
vt 0.000000 0.500000
vt 0.500000 0.185788
vt 1.000000 0.000000
vt 0.923911 0.453395
vt 0.963871 0.077016
vt 0.960897 0.452160
vt 0.761751 0.140483
vt 0.361858 0.094825
vt 0.779180 0.068288
vt 0.727777 0.228997
vt 0.350015 0.215026
vt 0.350420 0.183623
vt 0.755104 0.168398
vt 0.720256 0.315600
vt 0.355710 0.316665
vt 0.354760 0.244814
vt 0.748421 0.417376
vt 0.355926 0.425981
vt 0.356145 0.371665
vt 0.732475 0.369493
vt 0.019437 0.139827
vt 0.023010 0.081736
vt 0.023339 0.208634
vt 0.029893 0.323008
vt 0.037239 0.265809
vt 0.021442 0.377497
vt 0.021861 0.352202
vt 0.353369 0.465975
vt 0.018329 0.407709
vt 0.773331 0.465975
vt 0.877298 0.460554
vt 0.909029 0.080672
vt 0.904514 0.450592
vt 0.808547 0.436581
vt 0.894149 0.071716
vt 0.825584 0.439411
vt 0.940554 0.091351
vt 0.212000 0.530405
vt 0.257494 0.940773
vt 0.230567 0.939963
vt 0.043956 0.535793
vt 0.602059 0.508418
vt 0.447354 0.962288
vt 0.396790 0.968126
vt 0.435436 0.533167
vt 0.345852 0.511944
vt 0.318433 0.957474
vt 0.291093 0.508418
vt 0.730199 0.637473
vt 0.545239 0.951992
vt 0.494338 0.955879
vt 0.635448 0.537348
vt 0.162390 0.954568
vt 0.018581 0.619229
vt 0.727002 0.941899
vt 0.752940 0.955191
vt 0.860926 0.974049
vt 0.927133 0.968484
vt 0.673244 0.932084
vt 0.702412 0.937940
vt 0.803797 0.974086
vt 0.982983 0.965891
vn -0.6132 0.5802 -0.5361
vn -0.5051 0.5606 -0.6562
vn 0.5341 0.4168 0.7356
vn 0.6618 0.3939 0.6379
vn -0.6238 0.5016 0.5994
vn -0.7340 0.4786 0.4818
vn 0.7347 0.5020 -0.4564
vn 0.6484 0.4786 -0.5920
vn -0.7007 0.5406 -0.4655
vn -0.5989 0.5387 -0.5926
vn 0.5340 0.4308 0.7275
vn 0.6571 0.4265 0.6215
vn 0.1066 0.4742 -0.8739
vn 0.2665 0.4632 -0.8453
vn -0.3482 0.5125 0.7849
vn -0.1967 0.5017 0.8424
vn 0.7764 0.5437 -0.3187
vn 0.8308 0.5314 -0.1657
vn -0.8899 0.4455 0.0984
vn -0.8646 0.4310 0.2582
vn 0.8462 0.4699 0.2513
vn 0.7966 0.4487 0.4050
vn -0.7376 0.5304 -0.4179
vn -0.8146 0.5099 -0.2764
vn 0.3643 0.5016 0.7846
vn 0.2173 0.4786 0.8507
vn -0.1930 0.5020 -0.8431
vn -0.3493 0.4786 -0.8055
vn -0.8606 0.5016 0.0879
vn -0.8750 0.4786 -0.0727
vn 0.8598 0.5020 0.0931
vn 0.8755 0.4786 -0.0669
vn 0.1929 0.4694 -0.8617
vn 0.3491 0.4372 -0.8288
vn -0.3022 0.5416 0.7844
vn -0.1551 0.5104 0.8458
vn 0.7591 0.6300 0.1639
vn 0.7049 0.6343 0.3173
vn -0.7806 0.3185 -0.5378
vn -0.8614 0.3170 -0.3969
vn -0.3606 0.5016 0.7863
vn -0.5063 0.4786 0.7173
vn 0.5162 0.5020 -0.6939
vn 0.3863 0.4786 -0.7885
vn -0.7396 0.5374 0.4052
vn -0.8158 0.5151 0.2630
vn 0.8478 0.4653 -0.2543
vn 0.7995 0.4413 -0.4075
vn -0.8632 0.4814 -0.1523
vn -0.8232 0.4755 -0.3101
vn 0.7591 0.4971 0.4202
vn 0.8272 0.4911 0.2728
vn -0.1607 0.4944 -0.8543
vn -0.0036 0.4648 -0.8854
vn 0.0198 0.5156 0.8566
vn 0.1795 0.4860 0.8553
vn 0.6446 0.4671 -0.6052
vn 0.7535 0.4418 -0.4868
vn -0.7160 0.5375 0.4455
vn -0.6311 0.5131 0.5818
vn 0.8569 0.4993 -0.1282
vn 0.8678 0.4957 0.0342
vn -0.8629 0.4757 -0.1708
vn -0.8819 0.4713 -0.0095
vn 0.7000 0.4540 0.5512
vn 0.5884 0.4530 0.6697
vn -0.4388 0.5141 -0.7370
vn -0.5700 0.5138 -0.6412
vn -0.1408 0.5213 0.8417
vn -0.2996 0.5039 0.8101
vn 0.3530 0.4756 -0.8057
vn 0.2032 0.4571 -0.8659
vn -0.8008 0.4840 0.3526
vn -0.8767 0.4277 0.2201
vn 0.7599 0.5348 -0.3694
vn 0.7115 0.4790 -0.5141
vn -0.3013 0.4868 -0.8199
vn -0.1455 0.4782 -0.8661
vn 0.0356 0.4966 0.8673
vn 0.1969 0.4877 0.8505
vn 0.8794 0.4663 -0.0960
vn 0.8930 0.4454 0.0649
vn -0.8397 0.5334 -0.1013
vn -0.8562 0.5133 0.0590
vn -0.0090 0.5164 0.8563
vn -0.1708 0.4995 0.8493
vn 0.2271 0.4798 -0.8475
vn 0.0699 0.4619 -0.8842
vn 0.6706 0.5408 0.5078
vn 0.5754 0.5130 0.6370
vn -0.6044 0.4675 -0.6451
vn -0.7214 0.4380 -0.5363
vn -0.0942 0.4999 0.8610
vn -0.2532 0.4681 0.8466
vn 0.2167 0.5121 -0.8311
vn 0.0636 0.4802 -0.8749
vn -0.5713 0.5056 0.6466
vn -0.6875 0.4930 0.5332
vn 0.7389 0.4844 -0.4683
vn 0.6459 0.4711 -0.6007
vn 0.6270 0.4229 -0.6543
vn 0.7364 0.4154 -0.5340
vn -0.7387 0.5541 0.3838
vn -0.6534 0.5484 0.5219
vn -0.4751 0.4740 -0.7414
vn -0.3351 0.4584 -0.8232
vn 0.2563 0.5194 0.8152
vn 0.4086 0.5042 0.7608
vn 0.3438 0.4638 -0.8165
vn 0.4907 0.4149 -0.7662
vn -0.3396 0.5544 0.7598
vn -0.2051 0.5067 0.8374
vn 0.3616 0.6011 0.7127
vn 0.2156 0.5838 0.7827
vn -0.2101 0.3906 -0.8963
vn -0.3656 0.3692 -0.8544
vn -0.6083 0.4709 0.6389
vn -0.7248 0.4411 0.5292
vn 0.6733 0.5382 -0.5069
vn 0.5795 0.5093 -0.6363
vn -0.0041 -0.0284 -0.9996
vn 0.2964 -0.0706 -0.9524
vn -0.9512 -0.0417 -0.3057
vn -0.3394 0.0245 0.9403
vn 0.9988 0.0468 0.0150
vn 0.3383 0.0546 -0.9394
vn -0.7989 -0.0419 -0.6000
vn -0.1138 0.1811 0.9768
vn 0.9736 0.0906 -0.2093
vn 0.6251 0.0558 -0.7785
vn -0.6616 0.1494 0.7348
vn 0.5896 -0.0346 -0.8069
vn -0.7994 -0.0029 0.6008
vn -0.9144 0.0850 0.3958
vn 0.8154 0.0417 -0.5774
vn 0.5946 0.1810 0.7834
vn -0.6226 -0.0647 -0.7799
vn 0.6231 0.0557 0.7801
vn -0.6409 0.0255 -0.7672
vn -0.8280 0.0098 -0.5606
vn 0.4693 0.1058 0.8767
vn -0.8188 0.1250 -0.5603
vn 0.6263 0.0165 0.7794
vn -0.7699 0.0865 0.6323
vn 0.6359 0.2330 -0.7358
vn 0.9706 0.1421 0.1945
vn -0.2746 0.0607 0.9596
vn -0.9725 0.1191 -0.2000
vn 0.4309 0.3095 -0.8477
vn 0.4880 -0.1237 0.8640
vn -0.7338 0.1588 -0.6605
vn 0.7077 0.0152 -0.7063
vn -0.7572 0.0061 0.6531
vn 0.1611 0.1059 -0.9812
vn 0.1640 -0.1322 0.9776
vn 0.9961 -0.0858 -0.0222
g Snowy_Pinetree_Plane.009_Pine
usemtl Pine
s off
f 40/1/1 39/2/1 37/3/1 41/4/1
f 38/5/2 40/1/2 41/4/2
f 42/6/3 36/7/3 39/2/3 40/1/3
f 38/5/4 42/6/4 40/1/4
f 47/8/5 46/9/5 44/10/5 48/11/5
f 45/12/6 47/8/6 48/11/6
f 49/13/7 43/14/7 46/9/7 47/8/7
f 45/12/8 49/13/8 47/8/8
f 54/15/9 53/16/9 51/17/9 55/18/9
f 52/19/10 54/15/10 55/18/10
f 56/20/11 50/21/11 53/16/11 54/15/11
f 52/19/12 56/20/12 54/15/12
f 61/22/13 60/23/13 58/24/13 62/25/13
f 59/26/14 61/22/14 62/25/14
f 63/27/15 57/28/15 60/23/15 61/22/15
f 59/26/16 63/27/16 61/22/16
f 68/29/17 67/30/17 65/31/17 69/32/17
f 66/33/18 68/29/18 69/32/18
f 70/34/19 64/35/19 67/30/19 68/29/19
f 66/33/20 70/34/20 68/29/20
f 75/36/21 74/37/21 72/38/21 76/39/21
f 73/40/22 75/36/22 76/39/22
f 77/41/23 71/42/23 74/37/23 75/36/23
f 73/40/24 77/41/24 75/36/24
f 82/43/25 81/44/25 79/45/25 83/46/25
f 80/47/26 82/43/26 83/46/26
f 84/48/27 78/49/27 81/44/27 82/43/27
f 80/47/28 84/48/28 82/43/28
f 89/50/29 88/51/29 86/52/29 90/53/29
f 87/54/30 89/50/30 90/53/30
f 91/55/31 85/56/31 88/51/31 89/50/31
f 87/54/32 91/55/32 89/50/32
f 96/57/33 95/58/33 93/59/33 97/60/33
f 94/61/34 96/57/34 97/60/34
f 98/62/35 92/63/35 95/58/35 96/57/35
f 94/61/36 98/62/36 96/57/36
f 103/64/37 102/65/37 100/66/37 104/67/37
f 101/68/38 103/64/38 104/67/38
f 105/69/39 99/70/39 102/65/39 103/64/39
f 101/68/40 105/69/40 103/64/40
f 110/71/41 109/72/41 107/73/41 111/74/41
f 108/75/42 110/71/42 111/74/42
f 112/76/43 106/77/43 109/72/43 110/71/43
f 108/75/44 112/76/44 110/71/44
f 117/78/45 116/79/45 114/80/45 118/81/45
f 115/82/46 117/78/46 118/81/46
f 119/83/47 113/84/47 116/79/47 117/78/47
f 115/82/48 119/83/48 117/78/48
f 124/85/49 123/86/49 121/87/49 125/88/49
f 122/89/50 124/85/50 125/88/50
f 126/90/51 120/91/51 123/86/51 124/85/51
f 122/89/52 126/90/52 124/85/52
f 131/92/53 130/93/53 128/94/53 132/95/53
f 129/96/54 131/92/54 132/95/54
f 133/97/55 127/98/55 130/93/55 131/92/55
f 129/96/56 133/97/56 131/92/56
f 138/99/57 137/100/57 135/101/57 139/102/57
f 136/103/58 138/99/58 139/102/58
f 140/104/59 134/105/59 137/100/59 138/99/59
f 136/103/60 140/104/60 138/99/60
f 145/106/61 144/107/61 142/108/61 146/109/61
f 143/110/62 145/106/62 146/109/62
f 147/111/63 141/112/63 144/107/63 145/106/63
f 143/110/64 147/111/64 145/106/64
f 152/113/65 151/114/65 149/115/65 153/116/65
f 150/117/66 152/113/66 153/116/66
f 154/118/67 148/119/67 151/114/67 152/113/67
f 150/117/68 154/118/68 152/113/68
f 159/120/69 158/121/69 156/122/69 160/123/69
f 157/124/70 159/120/70 160/123/70
f 161/125/71 155/126/71 158/121/71 159/120/71
f 157/124/72 161/125/72 159/120/72
f 166/127/73 165/128/73 163/129/73 167/130/73
f 164/131/74 166/127/74 167/130/74
f 168/132/75 162/133/75 165/128/75 166/127/75
f 164/131/76 168/132/76 166/127/76
f 173/134/77 172/135/77 170/136/77 174/137/77
f 171/138/78 173/134/78 174/137/78
f 175/139/79 169/140/79 172/135/79 173/134/79
f 171/138/80 175/139/80 173/134/80
f 180/141/81 179/142/81 177/143/81 181/144/81
f 178/145/82 180/141/82 181/144/82
f 182/146/83 176/147/83 179/142/83 180/141/83
f 178/145/84 182/146/84 180/141/84
f 187/148/85 186/149/85 184/150/85 188/151/85
f 185/152/86 187/148/86 188/151/86
f 189/153/87 183/154/87 186/149/87 187/148/87
f 185/152/88 189/153/88 187/148/88
f 194/155/89 193/156/89 191/157/89 195/158/89
f 192/159/90 194/155/90 195/158/90
f 196/160/91 190/161/91 193/156/91 194/155/91
f 192/159/92 196/160/92 194/155/92
f 201/162/93 200/163/93 198/164/93 202/165/93
f 199/166/94 201/162/94 202/165/94
f 203/167/95 197/168/95 200/163/95 201/162/95
f 199/166/96 203/167/96 201/162/96
f 208/169/97 207/170/97 205/171/97 209/172/97
f 206/173/98 208/169/98 209/172/98
f 210/174/99 204/175/99 207/170/99 208/169/99
f 206/173/100 210/174/100 208/169/100
f 215/176/101 214/177/101 212/178/101 216/179/101
f 213/180/102 215/176/102 216/179/102
f 217/181/103 211/182/103 214/177/103 215/176/103
f 213/180/104 217/181/104 215/176/104
f 222/183/105 221/184/105 219/185/105 223/186/105
f 220/187/106 222/183/106 223/186/106
f 224/188/107 218/189/107 221/184/107 222/183/107
f 220/187/108 224/188/108 222/183/108
f 229/190/109 228/191/109 226/192/109 230/193/109
f 227/194/110 229/190/110 230/193/110
f 231/195/111 225/196/111 228/191/111 229/190/111
f 227/194/112 231/195/112 229/190/112
f 236/197/113 235/198/113 233/199/113 237/200/113
f 234/201/114 236/197/114 237/200/114
f 238/202/115 232/203/115 235/198/115 236/197/115
f 234/201/116 238/202/116 236/197/116
f 243/204/117 242/205/117 240/206/117 244/207/117
f 241/208/118 243/204/118 244/207/118
f 245/209/119 239/210/119 242/205/119 243/204/119
f 241/208/120 245/209/120 243/204/120
g Snowy_Pinetree_Plane.009_PSX_tree
usemtl PSX_tree
f 35/211/121 2/212/121 31/213/121
f 30/214/122 6/215/122 27/216/122
f 25/217/123 16/218/123 9/219/123 26/220/123
f 29/221/124 21/222/124 8/223/124 25/217/124
f 28/224/125 17/225/125 7/226/125 24/227/125
f 6/215/126 22/228/126 10/229/126
f 16/218/127 13/230/127 9/219/127
f 21/222/128 23/231/128 12/232/128 8/223/128
f 17/225/129 18/233/129 11/234/129 7/226/129
f 6/235/130 10/236/130 18/233/130 17/225/130
f 8/223/131 12/232/131 13/230/131 16/218/131
f 27/237/132 6/235/132 17/225/132 28/224/132
f 25/217/133 8/223/133 16/218/133
f 33/238/134 2/239/134 34/240/134
f 31/241/135 2/242/135 32/243/135
f 7/226/136 11/234/136 23/231/136 21/222/136
f 9/219/137 13/230/137 22/228/137 6/215/137
f 24/227/138 7/226/138 21/222/138 29/221/138
f 26/220/139 9/219/139 6/215/139 30/214/139
f 34/240/140 2/244/140 35/211/140
f 32/243/141 2/239/141 33/238/141
f 4/245/142 26/246/142 30/247/142 20/248/142
f 3/249/143 24/250/143 29/251/143 19/252/143
f 5/253/144 25/254/144 15/255/144
f 1/256/145 27/257/145 28/258/145 14/259/145
f 14/259/146 28/258/146 24/250/146 3/249/146
f 19/252/147 29/251/147 25/254/147 5/253/147
f 15/255/148 25/254/148 26/246/148 4/245/148
f 20/248/149 30/247/149 27/260/149 1/261/149
f 11/262/150 32/243/150 33/238/150 23/263/150
f 13/264/151 34/240/151 35/211/151 22/265/151
f 10/266/152 31/241/152 32/243/152 18/267/152
f 12/268/153 33/238/153 34/240/153 13/264/153
f 22/265/154 35/211/154 31/213/154 10/269/154
f 23/263/155 33/238/155 12/268/155
f 18/267/156 32/243/156 11/262/156
